<svg width="44" height="44" viewBox="0 0 44 44" fill="none" xmlns="http://www.w3.org/2000/svg">
<path d="M44 22C44 34.1503 34.1503 44 22 44C9.84974 44 0 34.1503 0 22C0 9.84974 9.84974 0 22 0C34.1503 0 44 9.84974 44 22Z" fill="#1294F2"/>
<path d="M12.625 33.25C12.625 33.25 10.75 33.25 10.75 31.375C10.75 29.5 12.625 23.875 22 23.875C31.375 23.875 33.25 29.5 33.25 31.375C33.25 33.25 31.375 33.25 31.375 33.25H12.625ZM22 22C23.4918 22 24.9226 21.4074 25.9775 20.3525C27.0324 19.2976 27.625 17.8668 27.625 16.375C27.625 14.8832 27.0324 13.4524 25.9775 12.3975C24.9226 11.3426 23.4918 10.75 22 10.75C20.5082 10.75 19.0774 11.3426 18.0225 12.3975C16.9676 13.4524 16.375 14.8832 16.375 16.375C16.375 17.8668 16.9676 19.2976 18.0225 20.3525C19.0774 21.4074 20.5082 22 22 22Z" fill="white"/>
</svg>
