<svg width="44" height="44" viewBox="0 0 44 44" fill="none" xmlns="http://www.w3.org/2000/svg">
<path d="M44 22C44 34.1503 34.1503 44 22 44C9.84974 44 0 34.1503 0 22C0 9.84974 9.84974 0 22 0C34.1503 0 44 9.84974 44 22Z" fill="#FBA63C"/>
<path d="M18.5002 8.875C18.5002 8.64294 18.5923 8.42038 18.7564 8.25628C18.9205 8.09219 19.1431 8 19.3752 8H24.6252C24.8572 8 25.0798 8.09219 25.2439 8.25628C25.408 8.42038 25.5002 8.64294 25.5002 8.875C25.5002 9.10706 25.408 9.32962 25.2439 9.49372C25.0798 9.65781 24.8572 9.75 24.6252 9.75H23.7502V11.6225C26.1333 11.9665 28.3623 13.0051 30.1586 14.6086C31.9549 16.212 33.2389 18.3093 33.8501 20.6382C34.4614 22.9672 34.3729 25.4247 33.5956 27.7036C32.8183 29.9826 31.3867 31.982 29.4797 33.452L30.5314 34.5055C30.6957 34.6696 30.7881 34.8922 30.7883 35.1244C30.7884 35.3566 30.6964 35.5793 30.5323 35.7436C30.3682 35.9079 30.1456 36.0003 29.9134 36.0005C29.6812 36.0007 29.4585 35.9086 29.2942 35.7445L27.9887 34.439C26.1599 35.4655 24.0973 36.0031 22.0002 36C19.903 36.0031 17.8404 35.4655 16.0117 34.439L14.7062 35.7445C14.6248 35.8257 14.5282 35.8902 14.422 35.9341C14.3157 35.978 14.2019 36.0006 14.0869 36.0005C13.9719 36.0004 13.8581 35.9777 13.7519 35.9336C13.6457 35.8895 13.5493 35.825 13.468 35.7436C13.3868 35.6623 13.3224 35.5657 13.2784 35.4595C13.2345 35.3532 13.212 35.2394 13.212 35.1244C13.2122 34.8922 13.3046 34.6696 13.4689 34.5055L14.5224 33.452C12.6154 31.9821 11.1838 29.9828 10.4064 27.704C9.62903 25.4252 9.54034 22.9679 10.1514 20.6389C10.7625 18.31 12.0462 16.2128 13.8423 14.6092C15.6384 13.0056 17.8671 11.9668 20.2502 11.6225V9.75H19.3752C19.1431 9.75 18.9205 9.65781 18.7564 9.49372C18.5923 9.32962 18.5002 9.10706 18.5002 8.875ZM22.8752 17.625C22.8752 17.3929 22.783 17.1704 22.6189 17.0063C22.4548 16.8422 22.2322 16.75 22.0002 16.75C21.7681 16.75 21.5455 16.8422 21.3814 17.0063C21.2173 17.1704 21.1252 17.3929 21.1252 17.625V23.5085L18.6244 27.6735C18.5049 27.8726 18.4694 28.111 18.5257 28.3363C18.5819 28.5616 18.7254 28.7554 18.9245 28.8749C19.1236 28.9944 19.3621 29.0299 19.5874 28.9736C19.8127 28.9173 20.0064 28.7739 20.1259 28.5747L22.7509 24.1997C22.8323 24.0638 22.8752 23.9084 22.8752 23.75V17.625ZM9.50515 17.4272C9.05236 17.0334 8.68544 16.5506 8.4272 16.0089C8.16897 15.4671 8.02495 14.8781 8.00411 14.2783C7.98326 13.6785 8.08602 13.0809 8.30602 12.5225C8.52601 11.9642 8.85852 11.4571 9.28287 11.0327C9.70723 10.6084 10.2143 10.2759 10.7727 10.0559C11.331 9.83587 11.9287 9.7331 12.5285 9.75395C13.1282 9.7748 13.7173 9.91882 14.259 10.177C14.8007 10.4353 15.2835 10.8022 15.6774 11.255C13.0173 12.6056 10.8557 14.7672 9.50515 17.4272ZM28.3229 11.255C28.7168 10.8022 29.1996 10.4353 29.7413 10.177C30.283 9.91882 30.8721 9.7748 31.4719 9.75395C32.0716 9.7331 32.6693 9.83587 33.2276 10.0559C33.786 10.2759 34.2931 10.6084 34.7174 11.0327C35.1418 11.4571 35.4743 11.9642 35.6943 12.5225C35.9143 13.0809 36.0171 13.6785 35.9962 14.2783C35.9754 14.8781 35.8313 15.4671 35.5731 16.0089C35.3149 16.5506 34.948 17.0334 34.4952 17.4272C33.1446 14.7672 30.983 12.6056 28.3229 11.255Z" fill="white"/>
</svg>
