<svg width="15" height="18" viewBox="0 0 15 18" fill="none" xmlns="http://www.w3.org/2000/svg">
<path d="M10 15.9877L8.38125 14.369L7.5 15.2502L10 17.7502L15 12.7502L14.1187 11.869L10 15.9877Z" fill="#AA7BC3"/>
<path d="M5.625 16.5002H1.25V1.50021H6.25V5.25021C6.25099 5.58143 6.383 5.8988 6.61721 6.133C6.85142 6.36721 7.16878 6.49922 7.5 6.50021H11.25V10.2502H12.5V5.25021C12.5022 5.16807 12.4866 5.08643 12.4542 5.0109C12.4219 4.93538 12.3735 4.86776 12.3125 4.81271L7.9375 0.437713C7.88248 0.376678 7.81487 0.328307 7.73933 0.295936C7.6638 0.263565 7.58215 0.247965 7.5 0.250213H1.25C0.918784 0.251202 0.601416 0.383215 0.367209 0.617422C0.133003 0.851628 0.000989204 1.169 0 1.50021V16.5002C0.000989204 16.8314 0.133003 17.1488 0.367209 17.383C0.601416 17.6172 0.918784 17.7492 1.25 17.7502H5.625V16.5002ZM7.5 1.75021L11 5.25021H7.5V1.75021Z" fill="#AA7BC3"/>
</svg>
