<svg width="25" height="26" viewBox="0 0 25 26" fill="none" xmlns="http://www.w3.org/2000/svg">
<path d="M0 3.625C0 3.2106 0.16462 2.81317 0.457646 2.52015C0.750671 2.22712 1.1481 2.0625 1.5625 2.0625H23.4375C23.8519 2.0625 24.2493 2.22712 24.5424 2.52015C24.8354 2.81317 25 3.2106 25 3.625V6.75C25 7.1644 24.8354 7.56183 24.5424 7.85485C24.2493 8.14788 23.8519 8.3125 23.4375 8.3125V20.0312C23.4375 21.0673 23.0259 22.0608 22.2934 22.7934C21.5608 23.5259 20.5673 23.9375 19.5312 23.9375H5.46875C4.43275 23.9375 3.43918 23.5259 2.70661 22.7934C1.97405 22.0608 1.5625 21.0673 1.5625 20.0312V8.3125C1.1481 8.3125 0.750671 8.14788 0.457646 7.85485C0.16462 7.56183 0 7.1644 0 6.75V3.625ZM3.125 8.3125V20.0312C3.125 20.6529 3.37193 21.249 3.81147 21.6885C4.25101 22.1281 4.84715 22.375 5.46875 22.375H19.5312C20.1529 22.375 20.749 22.1281 21.1885 21.6885C21.6281 21.249 21.875 20.6529 21.875 20.0312V8.3125H3.125ZM23.4375 3.625H1.5625V6.75H23.4375V3.625ZM7.8125 12.2188C7.8125 12.0115 7.89481 11.8128 8.04132 11.6663C8.18784 11.5198 8.38655 11.4375 8.59375 11.4375H16.4062C16.6135 11.4375 16.8122 11.5198 16.9587 11.6663C17.1052 11.8128 17.1875 12.0115 17.1875 12.2188C17.1875 12.426 17.1052 12.6247 16.9587 12.7712C16.8122 12.9177 16.6135 13 16.4062 13H8.59375C8.38655 13 8.18784 12.9177 8.04132 12.7712C7.89481 12.6247 7.8125 12.426 7.8125 12.2188Z" fill="#AA7BC3" fill-opacity="0.8"/>
</svg>
