<svg width="22" height="22" viewBox="0 0 22 22" fill="none" xmlns="http://www.w3.org/2000/svg">
<path d="M0 2.40625C0 1.78465 0.24693 1.18851 0.686469 0.748969C1.12601 0.30943 1.72215 0.0625 2.34375 0.0625H7.03125C7.65285 0.0625 8.24899 0.30943 8.68853 0.748969C9.12807 1.18851 9.375 1.78465 9.375 2.40625V7.09375C9.375 7.71535 9.12807 8.31149 8.68853 8.75103C8.24899 9.19057 7.65285 9.4375 7.03125 9.4375H2.34375C1.72215 9.4375 1.12601 9.19057 0.686469 8.75103C0.24693 8.31149 0 7.71535 0 7.09375V2.40625ZM12.5 2.40625C12.5 1.78465 12.7469 1.18851 13.1865 0.748969C13.626 0.30943 14.2221 0.0625 14.8438 0.0625H19.5312C20.1529 0.0625 20.749 0.30943 21.1885 0.748969C21.6281 1.18851 21.875 1.78465 21.875 2.40625V7.09375C21.875 7.71535 21.6281 8.31149 21.1885 8.75103C20.749 9.19057 20.1529 9.4375 19.5312 9.4375H14.8438C14.2221 9.4375 13.626 9.19057 13.1865 8.75103C12.7469 8.31149 12.5 7.71535 12.5 7.09375V2.40625ZM0 14.9062C0 14.2846 0.24693 13.6885 0.686469 13.249C1.12601 12.8094 1.72215 12.5625 2.34375 12.5625H7.03125C7.65285 12.5625 8.24899 12.8094 8.68853 13.249C9.12807 13.6885 9.375 14.2846 9.375 14.9062V19.5938C9.375 20.2154 9.12807 20.8115 8.68853 21.251C8.24899 21.6906 7.65285 21.9375 7.03125 21.9375H2.34375C1.72215 21.9375 1.12601 21.6906 0.686469 21.251C0.24693 20.8115 0 20.2154 0 19.5938V14.9062ZM12.5 14.9062C12.5 14.2846 12.7469 13.6885 13.1865 13.249C13.626 12.8094 14.2221 12.5625 14.8438 12.5625H19.5312C20.1529 12.5625 20.749 12.8094 21.1885 13.249C21.6281 13.6885 21.875 14.2846 21.875 14.9062V19.5938C21.875 20.2154 21.6281 20.8115 21.1885 21.251C20.749 21.6906 20.1529 21.9375 19.5312 21.9375H14.8438C14.2221 21.9375 13.626 21.6906 13.1865 21.251C12.7469 20.8115 12.5 20.2154 12.5 19.5938V14.9062Z" fill="#AA7BC3" fill-opacity="0.8"/>
</svg>
