<svg width="25" height="26" viewBox="0 0 25 26" fill="none" xmlns="http://www.w3.org/2000/svg">
<g clip-path="url(#clip0_459_710)">
<path d="M12.5001 7.92813C11.8341 7.92813 11.1745 8.05932 10.5592 8.3142C9.94383 8.56909 9.38471 8.94268 8.91374 9.41365C8.44277 9.88462 8.06918 10.4437 7.8143 11.0591C7.55941 11.6744 7.42822 12.334 7.42822 13C7.42822 13.6661 7.55941 14.3256 7.8143 14.9409C8.06918 15.5563 8.44277 16.1154 8.91374 16.5864C9.38471 17.0573 9.94383 17.4309 10.5592 17.6858C11.1745 17.9407 11.8341 18.0719 12.5001 18.0719C13.8452 18.0719 15.1353 17.5375 16.0865 16.5864C17.0376 15.6352 17.572 14.3452 17.572 13C17.572 11.6549 17.0376 10.3648 16.0865 9.41365C15.1353 8.46249 13.8452 7.92813 12.5001 7.92813V7.92813ZM8.99072 13C8.99072 12.0693 9.36046 11.1766 10.0186 10.5185C10.6767 9.86037 11.5694 9.49063 12.5001 9.49063C13.4308 9.49063 14.3235 9.86037 14.9816 10.5185C15.6397 11.1766 16.0095 12.0693 16.0095 13C16.0095 13.9307 15.6397 14.8234 14.9816 15.4815C14.3235 16.1396 13.4308 16.5094 12.5001 16.5094C11.5694 16.5094 10.6767 16.1396 10.0186 15.4815C9.36046 14.8234 8.99072 13.9307 8.99072 13Z" fill="#AA7BC3" fill-opacity="0.8"/>
<path d="M15.3062 2.59845C14.4828 -0.198425 10.5171 -0.198425 9.6937 2.59845L9.54683 3.09689C9.48932 3.29212 9.38885 3.47202 9.25279 3.62338C9.11673 3.77475 8.94851 3.89375 8.76048 3.97166C8.57246 4.04956 8.36938 4.08441 8.16613 4.07363C7.96288 4.06286 7.76463 4.00674 7.58589 3.90939L7.12964 3.65939C4.56714 2.26564 1.76558 5.06876 3.16089 7.6297L3.40933 8.08595C3.50668 8.26469 3.5628 8.46295 3.57357 8.66619C3.58435 8.86944 3.5495 9.07252 3.4716 9.26054C3.39369 9.44857 3.27469 9.61679 3.12332 9.75285C2.97196 9.88891 2.79206 9.98938 2.59683 10.0469L2.09839 10.1938C-0.698486 11.0172 -0.698486 14.9828 2.09839 15.8063L2.59683 15.9531C2.79206 16.0106 2.97196 16.1111 3.12332 16.2472C3.27469 16.3832 3.39369 16.5514 3.4716 16.7395C3.5495 16.9275 3.58435 17.1306 3.57357 17.3338C3.5628 17.5371 3.50668 17.7353 3.40933 17.9141L3.15933 18.3703C1.76558 20.9328 4.56714 23.7359 7.12964 22.3391L7.58589 22.0906C7.76463 21.9933 7.96288 21.9372 8.16613 21.9264C8.36938 21.9156 8.57246 21.9505 8.76048 22.0284C8.94851 22.1063 9.11673 22.2253 9.25279 22.3766C9.38885 22.528 9.48932 22.7079 9.54683 22.9031L9.6937 23.4016C10.5171 26.1984 14.4828 26.1984 15.3062 23.4016L15.4531 22.9031C15.5106 22.7079 15.611 22.528 15.7471 22.3766C15.8832 22.2253 16.0514 22.1063 16.2394 22.0284C16.4274 21.9505 16.6305 21.9156 16.8338 21.9264C17.037 21.9372 17.2353 21.9933 17.414 22.0906L17.8703 22.3406C20.4328 23.7359 23.2359 20.9313 21.839 18.3703L21.5906 17.9141C21.4932 17.7353 21.4371 17.5371 21.4263 17.3338C21.4156 17.1306 21.4504 16.9275 21.5283 16.7395C21.6062 16.5514 21.7252 16.3832 21.8766 16.2472C22.0279 16.1111 22.2078 16.0106 22.4031 15.9531L22.9015 15.8063C25.6984 14.9828 25.6984 11.0172 22.9015 10.1938L22.4031 10.0469C22.2078 9.98938 22.0279 9.88891 21.8766 9.75285C21.7252 9.61679 21.6062 9.44857 21.5283 9.26054C21.4504 9.07252 21.4156 8.86944 21.4263 8.66619C21.4371 8.46295 21.4932 8.26469 21.5906 8.08595L21.8406 7.6297C23.2359 5.0672 20.4312 2.26564 17.8703 3.66095L17.414 3.90939C17.2353 4.00674 17.037 4.06286 16.8338 4.07363C16.6305 4.08441 16.4274 4.04956 16.2394 3.97166C16.0514 3.89375 15.8832 3.77475 15.7471 3.62338C15.611 3.47202 15.5106 3.29212 15.4531 3.09689L15.3062 2.59845V2.59845ZM11.1921 3.04064C11.5765 1.73595 13.4234 1.73595 13.8078 3.04064L13.9546 3.53907C14.0781 3.95796 14.2938 4.3439 14.5858 4.6686C14.8778 4.99331 15.2388 5.24855 15.6423 5.41561C16.0457 5.58266 16.4815 5.6573 16.9176 5.63406C17.3537 5.61081 17.779 5.49027 18.1625 5.28126L18.6171 5.03126C19.8109 4.38282 21.1171 5.68751 20.4671 6.88282L20.2187 7.33907C20.01 7.72255 19.8898 8.14787 19.8668 8.58385C19.8438 9.01983 19.9186 9.45543 20.0858 9.85874C20.253 10.262 20.5083 10.6228 20.833 10.9147C21.1578 11.2065 21.5436 11.422 21.9625 11.5453L22.4593 11.6922C23.764 12.0766 23.764 13.9234 22.4593 14.3078L21.9609 14.4547C21.542 14.5782 21.1561 14.7938 20.8314 15.0858C20.5067 15.3778 20.2514 15.7388 20.0844 16.1423C19.9173 16.5458 19.8427 16.9816 19.8659 17.4176C19.8892 17.8537 20.0097 18.2791 20.2187 18.6625L20.4687 19.1172C21.1171 20.3109 19.8125 21.6172 18.6171 20.9672L18.1625 20.7188C17.7789 20.5098 17.3535 20.3893 16.9173 20.3661C16.4811 20.343 16.0453 20.4178 15.6418 20.585C15.2383 20.7522 14.8773 21.0076 14.5854 21.3325C14.2934 21.6574 14.0779 22.0435 13.9546 22.4625L13.8078 22.9594C13.4234 24.2641 11.5765 24.2641 11.1921 22.9594L11.0453 22.4609C10.9217 22.0423 10.7061 21.6566 10.4142 21.332C10.1223 21.0075 9.7615 20.7523 9.35822 20.5853C8.95493 20.4183 8.51939 20.3436 8.0835 20.3666C7.6476 20.3897 7.22239 20.51 6.83901 20.7188L6.38276 20.9688C5.18901 21.6172 3.88276 20.3125 4.53276 19.1172L4.7812 18.6625C4.9905 18.279 5.11128 17.8535 5.13468 17.4173C5.15808 16.981 5.0835 16.545 4.91643 16.1413C4.74935 15.7376 4.49401 15.3765 4.16914 15.0844C3.84427 14.7922 3.45812 14.5766 3.03901 14.4531L2.54058 14.3063C1.23589 13.9219 1.23589 12.075 2.54058 11.6906L3.03901 11.5438C3.45746 11.4202 3.84298 11.2046 4.16736 10.9128C4.49174 10.621 4.74677 10.2604 4.91378 9.85729C5.0808 9.4542 5.15557 9.01888 5.13263 8.58317C5.10969 8.14746 4.98962 7.72239 4.7812 7.33907L4.5312 6.88282C3.88276 5.68907 5.18745 4.38282 6.38276 5.03282L6.83901 5.28126C7.22239 5.48997 7.6476 5.61028 8.0835 5.63338C8.51939 5.65647 8.95493 5.58176 9.35822 5.41473C9.7615 5.24769 10.1223 4.99256 10.4142 4.66801C10.7061 4.34347 10.9217 3.95774 11.0453 3.53907L11.1921 3.04064V3.04064Z" fill="#AA7BC3" fill-opacity="0.8"/>
</g>
<defs>
<clipPath id="clip0_459_710">
<rect width="25" height="25" fill="white" transform="translate(0 0.5)"/>
</clipPath>
</defs>
</svg>
