<svg width="15" height="18" viewBox="0 0 15 18" fill="none" xmlns="http://www.w3.org/2000/svg">
<path d="M10 15.9876L8.38125 14.3688L7.5 15.2501L10 17.7501L15 12.7501L14.1187 11.8688L10 15.9876Z" fill="#00467A" fill-opacity="0.8"/>
<path d="M5.625 16.5001H1.25V1.50009H6.25V5.25009C6.25099 5.58131 6.383 5.89868 6.61721 6.13288C6.85142 6.36709 7.16878 6.4991 7.5 6.50009H11.25V10.2501H12.5V5.25009C12.5022 5.16795 12.4866 5.08631 12.4542 5.01078C12.4219 4.93526 12.3735 4.86764 12.3125 4.81259L7.9375 0.43759C7.88248 0.376556 7.81487 0.328184 7.73933 0.295814C7.6638 0.263443 7.58215 0.247843 7.5 0.25009H1.25C0.918784 0.25108 0.601416 0.383093 0.367209 0.6173C0.133003 0.851506 0.000989204 1.16887 0 1.50009V16.5001C0.000989204 16.8313 0.133003 17.1487 0.367209 17.3829C0.601416 17.6171 0.918784 17.7491 1.25 17.7501H5.625V16.5001ZM7.5 1.75009L11 5.25009H7.5V1.75009Z" fill="#00467A" fill-opacity="0.8"/>
</svg>
