<svg width="30" height="31" viewBox="0 0 30 31" fill="none" xmlns="http://www.w3.org/2000/svg">
<g clip-path="url(#clip0_3_368)">
<path d="M30 15.3346C30 19.3128 28.4196 23.1281 25.6066 25.9412C22.7936 28.7542 18.9782 30.3346 15 30.3346C11.0218 30.3346 7.20644 28.7542 4.3934 25.9412C1.58035 23.1281 0 19.3128 0 15.3346C0 11.3563 1.58035 7.54103 4.3934 4.72799C7.20644 1.91494 11.0218 0.334587 15 0.334587C18.9782 0.334587 22.7936 1.91494 25.6066 4.72799C28.4196 7.54103 30 11.3563 30 15.3346V15.3346ZM22.5562 9.65334C22.4223 9.51987 22.2628 9.41479 22.0874 9.34437C21.9119 9.27394 21.724 9.23963 21.535 9.24348C21.3459 9.24734 21.1596 9.28927 20.9872 9.36678C20.8147 9.44429 20.6596 9.55578 20.5312 9.69459L14.0194 17.9915L10.095 14.0652C9.82842 13.8168 9.47583 13.6816 9.11152 13.688C8.74721 13.6944 8.39961 13.842 8.14196 14.0997C7.88431 14.3573 7.73673 14.7049 7.7303 15.0692C7.72387 15.4335 7.8591 15.7861 8.1075 16.0527L13.0687 21.0158C13.2024 21.1492 13.3616 21.2544 13.5367 21.3249C13.7119 21.3955 13.8995 21.4301 14.0883 21.4266C14.2771 21.4231 14.4633 21.3816 14.6357 21.3046C14.8081 21.2276 14.9633 21.1166 15.0919 20.9783L22.5769 11.6221C22.8321 11.3568 22.973 11.002 22.9695 10.6339C22.966 10.2658 22.8183 9.91374 22.5581 9.65334H22.5562Z" fill="#5DC983"/>
</g>
<defs>
<clipPath id="clip0_3_368">
<rect width="30" height="30" fill="white" transform="translate(0 0.334587)"/>
</clipPath>
</defs>
</svg>
