<svg width="22" height="22" viewBox="0 0 22 22" fill="none" xmlns="http://www.w3.org/2000/svg">
<path d="M0 2.34375C0 1.72215 0.24693 1.12601 0.686469 0.686469C1.12601 0.24693 1.72215 0 2.34375 0H7.03125C7.65285 0 8.24899 0.24693 8.68853 0.686469C9.12807 1.12601 9.375 1.72215 9.375 2.34375V7.03125C9.375 7.65285 9.12807 8.24899 8.68853 8.68853C8.24899 9.12807 7.65285 9.375 7.03125 9.375H2.34375C1.72215 9.375 1.12601 9.12807 0.686469 8.68853C0.24693 8.24899 0 7.65285 0 7.03125V2.34375ZM12.5 2.34375C12.5 1.72215 12.7469 1.12601 13.1865 0.686469C13.626 0.24693 14.2221 0 14.8438 0H19.5312C20.1529 0 20.749 0.24693 21.1885 0.686469C21.6281 1.12601 21.875 1.72215 21.875 2.34375V7.03125C21.875 7.65285 21.6281 8.24899 21.1885 8.68853C20.749 9.12807 20.1529 9.375 19.5312 9.375H14.8438C14.2221 9.375 13.626 9.12807 13.1865 8.68853C12.7469 8.24899 12.5 7.65285 12.5 7.03125V2.34375ZM0 14.8438C0 14.2221 0.24693 13.626 0.686469 13.1865C1.12601 12.7469 1.72215 12.5 2.34375 12.5H7.03125C7.65285 12.5 8.24899 12.7469 8.68853 13.1865C9.12807 13.626 9.375 14.2221 9.375 14.8438V19.5312C9.375 20.1529 9.12807 20.749 8.68853 21.1885C8.24899 21.6281 7.65285 21.875 7.03125 21.875H2.34375C1.72215 21.875 1.12601 21.6281 0.686469 21.1885C0.24693 20.749 0 20.1529 0 19.5312V14.8438ZM12.5 14.8438C12.5 14.2221 12.7469 13.626 13.1865 13.1865C13.626 12.7469 14.2221 12.5 14.8438 12.5H19.5312C20.1529 12.5 20.749 12.7469 21.1885 13.1865C21.6281 13.626 21.875 14.2221 21.875 14.8438V19.5312C21.875 20.1529 21.6281 20.749 21.1885 21.1885C20.749 21.6281 20.1529 21.875 19.5312 21.875H14.8438C14.2221 21.875 13.626 21.6281 13.1865 21.1885C12.7469 20.749 12.5 20.1529 12.5 19.5312V14.8438Z" fill="white"/>
</svg>
