<svg width="26" height="26" viewBox="0 0 26 26" fill="none" xmlns="http://www.w3.org/2000/svg">
<g clip-path="url(#clip0_22_995)">
<path d="M0.295288 6.75C0.295288 5.9212 0.624528 5.12634 1.21058 4.54029C1.79663 3.95424 2.59149 3.625 3.42029 3.625H22.1703C22.9991 3.625 23.7939 3.95424 24.38 4.54029C24.966 5.12634 25.2953 5.9212 25.2953 6.75V19.25C25.2953 20.0788 24.966 20.8737 24.38 21.4597C23.7939 22.0458 22.9991 22.375 22.1703 22.375H3.42029C2.59149 22.375 1.79663 22.0458 1.21058 21.4597C0.624528 20.8737 0.295288 20.0788 0.295288 19.25V6.75ZM3.42029 5.1875C3.00589 5.1875 2.60846 5.35212 2.31543 5.64515C2.02241 5.93817 1.85779 6.3356 1.85779 6.75V7.08906L12.7953 13.6516L23.7328 7.08906V6.75C23.7328 6.3356 23.5682 5.93817 23.2751 5.64515C22.9821 5.35212 22.5847 5.1875 22.1703 5.1875H3.42029ZM23.7328 8.91094L16.2984 13.3719L23.7328 17.8656V8.9125V8.91094ZM23.6797 19.6578L14.7812 14.2812L12.7953 15.4734L10.8078 14.2812L1.91091 19.6563C2.00028 19.9882 2.19661 20.2813 2.46949 20.4904C2.74236 20.6994 3.07655 20.8126 3.42029 20.8125H22.1703C22.5138 20.8127 22.8479 20.6997 23.1207 20.491C23.3935 20.2823 23.59 19.9894 23.6797 19.6578V19.6578ZM1.85779 17.8656L9.29216 13.3719L1.85779 8.91094V17.8641V17.8656Z" fill="#BDBDBD"/>
</g>
<defs>
<clipPath id="clip0_22_995">
<rect width="25" height="25" fill="white" transform="translate(0.295288 0.5)"/>
</clipPath>
</defs>
</svg>
