<svg width="30" height="31" viewBox="0 0 30 31" fill="none" xmlns="http://www.w3.org/2000/svg">
<circle cx="15" cy="15.3346" r="15" fill="#EB5757"/>
<path d="M21.1523 8.97324C21.2109 9.00933 21.259 9.05815 21.2922 9.11539C21.3255 9.17263 21.3429 9.23652 21.343 9.30144V15.2328C21.343 15.3118 21.3173 15.3889 21.2692 15.4543C21.2212 15.5197 21.1529 15.5704 21.0733 15.5998L20.9136 15.2328L21.0733 15.5998L21.0708 15.6005L21.0656 15.6029L21.0459 15.61C20.9329 15.6514 20.8193 15.6909 20.7049 15.7287C20.4782 15.8038 20.163 15.905 19.8058 16.0055C19.105 16.2048 18.1921 16.4191 17.4784 16.4191C16.751 16.4191 16.149 16.1976 15.6252 16.0039L15.6011 15.996C15.0566 15.7943 14.5929 15.6282 14.0433 15.6282C13.4421 15.6282 12.6366 15.8101 11.9504 16.0055C11.6432 16.0936 11.3387 16.1899 11.0375 16.2941V21.1642C11.0375 21.269 10.9923 21.3696 10.9117 21.4438C10.8312 21.5179 10.722 21.5596 10.6081 21.5596C10.4942 21.5596 10.385 21.5179 10.3045 21.4438C10.224 21.3696 10.1787 21.269 10.1787 21.1642V9.30144C10.1787 9.19656 10.224 9.09599 10.3045 9.02183C10.385 8.94767 10.4942 8.90601 10.6081 8.90601C10.722 8.90601 10.8312 8.94767 10.9117 9.02183C10.9923 9.09599 11.0375 9.19656 11.0375 9.30144V9.52446C11.2316 9.46198 11.4635 9.39001 11.7159 9.31884C12.4167 9.12112 13.3305 8.90601 14.0433 8.90601C14.7647 8.90601 15.3521 9.12508 15.8648 9.31646L15.9017 9.3307C16.4359 9.5292 16.9013 9.69686 17.4784 9.69686C18.0796 9.69686 18.8851 9.51497 19.5713 9.31963C19.9623 9.20718 20.3488 9.08161 20.7298 8.94318L20.7461 8.93765L20.7496 8.93607H20.7504" fill="white"/>
</svg>
