<svg width="26" height="26" viewBox="0 0 26 26" fill="none" xmlns="http://www.w3.org/2000/svg">
<g clip-path="url(#clip0_302_1176)">
<path d="M12.7953 25.4999C13.6241 25.4999 14.4189 25.1707 15.005 24.5846C15.591 23.9986 15.9203 23.2037 15.9203 22.3749H9.67029C9.67029 23.2037 9.99953 23.9986 10.5856 24.5846C11.1716 25.1707 11.9665 25.4999 12.7953 25.4999ZM12.7953 3.49678L11.55 3.74834C10.1374 4.03615 8.86768 4.80319 7.95568 5.91962C7.04368 7.03606 6.54544 8.43332 6.54529 9.8749C6.54529 10.8562 6.33591 13.3077 5.8281 15.7218C5.5781 16.9202 5.2406 18.1686 4.79216 19.2499H20.7984C20.35 18.1686 20.014 16.9218 19.7625 15.7218C19.2547 13.3077 19.0453 10.8562 19.0453 9.8749C19.0448 8.43358 18.5464 7.0367 17.6344 5.92058C16.7224 4.80447 15.4529 4.03766 14.0406 3.7499L12.7953 3.49521V3.49678ZM22.514 19.2499C22.8625 19.9483 23.2656 20.5015 23.7328 20.8124H1.85779C2.32498 20.5015 2.7281 19.9483 3.07654 19.2499C4.48279 16.4374 4.98279 11.2499 4.98279 9.8749C4.98279 6.09365 7.67029 2.9374 11.2406 2.21709C11.2188 1.99983 11.2428 1.78041 11.311 1.57299C11.3792 1.36556 11.4901 1.17473 11.6366 1.01281C11.7831 0.850881 11.9619 0.721456 12.1614 0.632878C12.361 0.5443 12.5769 0.498535 12.7953 0.498535C13.0136 0.498535 13.2296 0.5443 13.4291 0.632878C13.6287 0.721456 13.8075 0.850881 13.954 1.01281C14.1005 1.17473 14.2114 1.36556 14.2796 1.57299C14.3478 1.78041 14.3718 1.99983 14.35 2.21709C16.116 2.57631 17.7037 3.53484 18.8441 4.93037C19.9845 6.3259 20.6076 8.07267 20.6078 9.8749C20.6078 11.2499 21.1078 16.4374 22.514 19.2499Z" fill="#BDBDBD"/>
</g>
<defs>
<clipPath id="clip0_302_1176">
<rect width="25" height="25" fill="white" transform="translate(0.295288 0.5)"/>
</clipPath>
</defs>
</svg>
