<svg width="5" height="20" viewBox="0 0 5 20" fill="none" xmlns="http://www.w3.org/2000/svg">
<path fill-rule="evenodd" clip-rule="evenodd" d="M4.31638 2.61906C4.31638 3.76948 3.35037 4.70308 2.15819 4.70308C0.966006 4.70308 0 3.76948 0 2.61906C0 1.46777 0.966006 0.535034 2.15819 0.535034C3.35037 0.535034 4.31638 1.46777 4.31638 2.61906ZM4.31638 10C4.31638 11.1436 3.35037 12.0703 2.15819 12.0703C0.966006 12.0703 0 11.1436 0 10C0 8.85649 0.966006 7.92978 2.15819 7.92978C3.35037 7.92978 4.31638 8.85649 4.31638 10ZM4.31638 17.381C4.31638 18.5323 3.35037 19.465 2.15819 19.465C0.966006 19.465 0 18.5323 0 17.381C0 16.2306 0.966006 15.297 2.15819 15.297C3.35037 15.297 4.31638 16.2306 4.31638 17.381Z" fill="white"/>
</svg>
