<svg width="5" height="20" viewBox="0 0 5 20" fill="none" xmlns="http://www.w3.org/2000/svg">
<path fill-rule="evenodd" clip-rule="evenodd" d="M4.31638 2.61899C4.31638 3.76942 3.35037 4.70301 2.15819 4.70301C0.966006 4.70301 0 3.76942 0 2.61899C0 1.46771 0.966006 0.534973 2.15819 0.534973C3.35037 0.534973 4.31638 1.46771 4.31638 2.61899ZM4.31638 9.99997C4.31638 11.1435 3.35037 12.0702 2.15819 12.0702C0.966006 12.0702 0 11.1435 0 9.99997C0 8.85643 0.966006 7.92972 2.15819 7.92972C3.35037 7.92972 4.31638 8.85643 4.31638 9.99997ZM4.31638 17.381C4.31638 18.5322 3.35037 19.465 2.15819 19.465C0.966006 19.465 0 18.5322 0 17.381C0 16.2305 0.966006 15.2969 2.15819 15.2969C3.35037 15.2969 4.31638 16.2305 4.31638 17.381Z" fill="#00467A"/>
</svg>
