<svg width="44" height="44" viewBox="0 0 44 44" fill="none" xmlns="http://www.w3.org/2000/svg">
<path d="M44 22C44 34.1503 34.1503 44 22 44C9.84974 44 0 34.1503 0 22C0 9.84974 9.84974 0 22 0C34.1503 0 44 9.84974 44 22Z" fill="#5DC983"/>
<path d="M24.2628 8H15C14.0717 8 13.1815 8.36875 12.5251 9.02513C11.8687 9.6815 11.5 10.5717 11.5 11.5V32.5C11.5 33.4283 11.8687 34.3185 12.5251 34.9749C13.1815 35.6313 14.0717 36 15 36H29C29.9283 36 30.8185 35.6313 31.4749 34.9749C32.1313 34.3185 32.5 33.4283 32.5 32.5V16.2372C32.4999 15.7732 32.3155 15.3281 31.9872 15L25.5 8.51275C25.1719 8.18454 24.7268 8.0001 24.2628 8ZM24.625 14.125V10.625L29.875 15.875H26.375C25.9109 15.875 25.4658 15.6906 25.1376 15.3624C24.8094 15.0342 24.625 14.5891 24.625 14.125ZM26.9945 21.7445L21.7445 26.9945C21.6632 27.076 21.5667 27.1406 21.4604 27.1847C21.3541 27.2289 21.2401 27.2516 21.125 27.2516C21.0099 27.2516 20.8959 27.2289 20.7896 27.1847C20.6833 27.1406 20.5868 27.076 20.5055 26.9945L17.8805 24.3695C17.7991 24.2881 17.7346 24.1916 17.6906 24.0853C17.6466 23.979 17.6239 23.8651 17.6239 23.75C17.6239 23.6349 17.6466 23.521 17.6906 23.4147C17.7346 23.3084 17.7991 23.2119 17.8805 23.1305C18.0448 22.9662 18.2676 22.8739 18.5 22.8739C18.6151 22.8739 18.729 22.8966 18.8353 22.9406C18.9416 22.9846 19.0381 23.0491 19.1195 23.1305L21.125 25.1378L25.7555 20.5055C25.9198 20.3412 26.1426 20.2489 26.375 20.2489C26.6074 20.2489 26.8302 20.3412 26.9945 20.5055C27.1588 20.6698 27.2511 20.8926 27.2511 21.125C27.2511 21.3574 27.1588 21.5802 26.9945 21.7445Z" fill="white"/>
</svg>
