<svg width="30" height="31" viewBox="0 0 30 31" fill="none" xmlns="http://www.w3.org/2000/svg">
<g clip-path="url(#clip0_3_381)">
<path d="M30 15.3346C30 19.3128 28.4196 23.1282 25.6066 25.9412C22.7936 28.7542 18.9782 30.3346 15 30.3346C11.0218 30.3346 7.20644 28.7542 4.3934 25.9412C1.58035 23.1282 0 19.3128 0 15.3346C0 11.3563 1.58035 7.54104 4.3934 4.72799C7.20644 1.91495 11.0218 0.334595 15 0.334595C18.9782 0.334595 22.7936 1.91495 25.6066 4.72799C28.4196 7.54104 30 11.3563 30 15.3346V15.3346ZM15.9375 8.77209C15.9375 8.52345 15.8387 8.285 15.6629 8.10918C15.4871 7.93337 15.2486 7.83459 15 7.83459C14.7514 7.83459 14.5129 7.93337 14.3371 8.10918C14.1613 8.285 14.0625 8.52345 14.0625 8.77209V14.3971H8.4375C8.18886 14.3971 7.9504 14.4959 7.77459 14.6717C7.59877 14.8475 7.5 15.086 7.5 15.3346C7.5 15.5832 7.59877 15.8217 7.77459 15.9975C7.9504 16.1733 8.18886 16.2721 8.4375 16.2721H14.0625V21.8971C14.0625 22.1457 14.1613 22.3842 14.3371 22.56C14.5129 22.7358 14.7514 22.8346 15 22.8346C15.2486 22.8346 15.4871 22.7358 15.6629 22.56C15.8387 22.3842 15.9375 22.1457 15.9375 21.8971V16.2721H21.5625C21.8111 16.2721 22.0496 16.1733 22.2254 15.9975C22.4012 15.8217 22.5 15.5832 22.5 15.3346C22.5 15.086 22.4012 14.8475 22.2254 14.6717C22.0496 14.4959 21.8111 14.3971 21.5625 14.3971H15.9375V8.77209Z" fill="#FBA63C"/>
</g>
<defs>
<clipPath id="clip0_3_381">
<rect width="30" height="30" fill="white" transform="translate(0 0.334595)"/>
</clipPath>
</defs>
</svg>
