<svg width="25" height="24" viewBox="0 0 25 24" fill="none" xmlns="http://www.w3.org/2000/svg">
<g clip-path="url(#clip0_22_997)">
<path d="M12.2953 22.5C9.51051 22.5 6.8398 21.3938 4.87067 19.4246C2.90153 17.4555 1.79529 14.7848 1.79529 12C1.79529 9.21523 2.90153 6.54451 4.87067 4.57538C6.8398 2.60625 9.51051 1.5 12.2953 1.5C15.0801 1.5 17.7508 2.60625 19.7199 4.57538C21.689 6.54451 22.7953 9.21523 22.7953 12C22.7953 14.7848 21.689 17.4555 19.7199 19.4246C17.7508 21.3938 15.0801 22.5 12.2953 22.5ZM12.2953 24C15.4779 24 18.5301 22.7357 20.7806 20.4853C23.031 18.2348 24.2953 15.1826 24.2953 12C24.2953 8.8174 23.031 5.76516 20.7806 3.51472C18.5301 1.26428 15.4779 0 12.2953 0C9.11269 0 6.06044 1.26428 3.81001 3.51472C1.55957 5.76516 0.295288 8.8174 0.295288 12C0.295288 15.1826 1.55957 18.2348 3.81001 20.4853C6.06044 22.7357 9.11269 24 12.2953 24V24Z" fill="#BDBDBD"/>
<path d="M8.17769 8.679C8.17563 8.72744 8.18351 8.77579 8.20083 8.82107C8.21816 8.86636 8.24456 8.90762 8.27842 8.94232C8.31228 8.97703 8.35288 9.00444 8.39772 9.02287C8.44257 9.0413 8.49071 9.05036 8.53919 9.0495H9.77669C9.98369 9.0495 10.1487 8.88 10.1757 8.6745C10.3107 7.6905 10.9857 6.9735 12.1887 6.9735C13.2177 6.9735 14.1597 7.488 14.1597 8.7255C14.1597 9.678 13.5987 10.116 12.7122 10.782C11.7027 11.5155 10.9032 12.372 10.9602 13.7625L10.9647 14.088C10.9663 14.1864 11.0065 14.2803 11.0766 14.3493C11.1468 14.4183 11.2413 14.457 11.3397 14.457H12.5562C12.6556 14.457 12.751 14.4175 12.8214 14.3472C12.8917 14.2768 12.9312 14.1815 12.9312 14.082V13.9245C12.9312 12.8475 13.3407 12.534 14.4462 11.6955C15.3597 11.001 16.3122 10.23 16.3122 8.6115C16.3122 6.345 14.3982 5.25 12.3027 5.25C10.4022 5.25 8.32019 6.135 8.17769 8.679V8.679ZM10.5132 17.3235C10.5132 18.123 11.1507 18.714 12.0282 18.714C12.9417 18.714 13.5702 18.123 13.5702 17.3235C13.5702 16.4955 12.9402 15.9135 12.0267 15.9135C11.1507 15.9135 10.5132 16.4955 10.5132 17.3235Z" fill="#BDBDBD"/>
</g>
<defs>
<clipPath id="clip0_22_997">
<rect width="24" height="24" fill="white" transform="translate(0.295288)"/>
</clipPath>
</defs>
</svg>
