<svg width="25" height="25" viewBox="0 0 25 25" fill="none" xmlns="http://www.w3.org/2000/svg">
<g clip-path="url(#clip0_3_338)">
<path d="M12.5 25C13.3288 25 14.1237 24.6707 14.7097 24.0847C15.2958 23.4986 15.625 22.7038 15.625 21.875H9.375C9.375 22.7038 9.70424 23.4986 10.2903 24.0847C10.8763 24.6707 11.6712 25 12.5 25ZM12.5 2.99687L11.2547 3.24843C9.84212 3.53624 8.57239 4.30328 7.66039 5.41972C6.7484 6.53615 6.25015 7.93341 6.25 9.37499C6.25 10.3562 6.04062 12.8078 5.53281 15.2219C5.28281 16.4203 4.94531 17.6687 4.49688 18.75H20.5031C20.0547 17.6687 19.7188 16.4219 19.4672 15.2219C18.9594 12.8078 18.75 10.3562 18.75 9.37499C18.7495 7.93368 18.2511 6.53679 17.3391 5.42067C16.4271 4.30456 15.1576 3.53775 13.7453 3.24999L12.5 2.99531V2.99687ZM22.2188 18.75C22.5672 19.4484 22.9703 20.0016 23.4375 20.3125H1.5625C2.02969 20.0016 2.43281 19.4484 2.78125 18.75C4.1875 15.9375 4.6875 10.75 4.6875 9.37499C4.6875 5.59374 7.375 2.43749 10.9453 1.71718C10.9235 1.49992 10.9475 1.2805 11.0157 1.07308C11.0839 0.86565 11.1948 0.674821 11.3413 0.512897C11.4878 0.350973 11.6666 0.221548 11.8661 0.13297C12.0657 0.0443915 12.2816 -0.00137329 12.5 -0.00137329C12.7184 -0.00137329 12.9343 0.0443915 13.1339 0.13297C13.3334 0.221548 13.5122 0.350973 13.6587 0.512897C13.8052 0.674821 13.9161 0.86565 13.9843 1.07308C14.0525 1.2805 14.0765 1.49992 14.0547 1.71718C15.8208 2.0764 17.4084 3.03493 18.5488 4.43046C19.6892 5.826 20.3123 7.57276 20.3125 9.37499C20.3125 10.75 20.8125 15.9375 22.2188 18.75Z" fill="#828282"/>
<circle cx="19.5" cy="6.5" r="3.5" fill="#EB5757"/>
</g>
<defs>
<clipPath id="clip0_3_338">
<rect width="25" height="25" fill="white"/>
</clipPath>
</defs>
</svg>
