<svg width="25" height="26" viewBox="0 0 25 26" fill="none" xmlns="http://www.w3.org/2000/svg">
<g clip-path="url(#clip0_302_911)">
<path d="M5.46875 0.5C5.67595 0.5 5.87466 0.58231 6.02118 0.728823C6.16769 0.875336 6.25 1.07405 6.25 1.28125V2.0625H18.75V1.28125C18.75 1.07405 18.8323 0.875336 18.9788 0.728823C19.1253 0.58231 19.324 0.5 19.5312 0.5C19.7385 0.5 19.9372 0.58231 20.0837 0.728823C20.2302 0.875336 20.3125 1.07405 20.3125 1.28125V2.0625H21.875C22.7038 2.0625 23.4987 2.39174 24.0847 2.97779C24.6708 3.56384 25 4.3587 25 5.1875V22.375C25 23.2038 24.6708 23.9987 24.0847 24.5847C23.4987 25.1708 22.7038 25.5 21.875 25.5H3.125C2.2962 25.5 1.50134 25.1708 0.915291 24.5847C0.32924 23.9987 0 23.2038 0 22.375V5.1875C0 4.3587 0.32924 3.56384 0.915291 2.97779C1.50134 2.39174 2.2962 2.0625 3.125 2.0625H4.6875V1.28125C4.6875 1.07405 4.76981 0.875336 4.91632 0.728823C5.06284 0.58231 5.26155 0.5 5.46875 0.5V0.5ZM3.125 3.625C2.7106 3.625 2.31317 3.78962 2.02015 4.08265C1.72712 4.37567 1.5625 4.7731 1.5625 5.1875V22.375C1.5625 22.7894 1.72712 23.1868 2.02015 23.4799C2.31317 23.7729 2.7106 23.9375 3.125 23.9375H21.875C22.2894 23.9375 22.6868 23.7729 22.9799 23.4799C23.2729 23.1868 23.4375 22.7894 23.4375 22.375V5.1875C23.4375 4.7731 23.2729 4.37567 22.9799 4.08265C22.6868 3.78962 22.2894 3.625 21.875 3.625H3.125Z" fill="white"/>
<path d="M3.90625 6.75C3.90625 6.5428 3.98856 6.34409 4.13507 6.19757C4.28159 6.05106 4.4803 5.96875 4.6875 5.96875H20.3125C20.5197 5.96875 20.7184 6.05106 20.8649 6.19757C21.0114 6.34409 21.0938 6.5428 21.0938 6.75V8.3125C21.0938 8.5197 21.0114 8.71841 20.8649 8.86493C20.7184 9.01144 20.5197 9.09375 20.3125 9.09375H4.6875C4.4803 9.09375 4.28159 9.01144 4.13507 8.86493C3.98856 8.71841 3.90625 8.5197 3.90625 8.3125V6.75ZM17.1875 12.2188C17.1875 12.0115 17.2698 11.8128 17.4163 11.6663C17.5628 11.5198 17.7615 11.4375 17.9688 11.4375H19.5312C19.7385 11.4375 19.9372 11.5198 20.0837 11.6663C20.2302 11.8128 20.3125 12.0115 20.3125 12.2188V13.7812C20.3125 13.9885 20.2302 14.1872 20.0837 14.3337C19.9372 14.4802 19.7385 14.5625 19.5312 14.5625H17.9688C17.7615 14.5625 17.5628 14.4802 17.4163 14.3337C17.2698 14.1872 17.1875 13.9885 17.1875 13.7812V12.2188ZM12.5 12.2188C12.5 12.0115 12.5823 11.8128 12.7288 11.6663C12.8753 11.5198 13.074 11.4375 13.2812 11.4375H14.8438C15.051 11.4375 15.2497 11.5198 15.3962 11.6663C15.5427 11.8128 15.625 12.0115 15.625 12.2188V13.7812C15.625 13.9885 15.5427 14.1872 15.3962 14.3337C15.2497 14.4802 15.051 14.5625 14.8438 14.5625H13.2812C13.074 14.5625 12.8753 14.4802 12.7288 14.3337C12.5823 14.1872 12.5 13.9885 12.5 13.7812V12.2188ZM4.6875 16.9062C4.6875 16.699 4.76981 16.5003 4.91632 16.3538C5.06284 16.2073 5.26155 16.125 5.46875 16.125H7.03125C7.23845 16.125 7.43716 16.2073 7.58368 16.3538C7.73019 16.5003 7.8125 16.699 7.8125 16.9062V18.4688C7.8125 18.676 7.73019 18.8747 7.58368 19.0212C7.43716 19.1677 7.23845 19.25 7.03125 19.25H5.46875C5.26155 19.25 5.06284 19.1677 4.91632 19.0212C4.76981 18.8747 4.6875 18.676 4.6875 18.4688V16.9062ZM9.375 16.9062C9.375 16.699 9.45731 16.5003 9.60382 16.3538C9.75034 16.2073 9.94905 16.125 10.1562 16.125H11.7188C11.926 16.125 12.1247 16.2073 12.2712 16.3538C12.4177 16.5003 12.5 16.699 12.5 16.9062V18.4688C12.5 18.676 12.4177 18.8747 12.2712 19.0212C12.1247 19.1677 11.926 19.25 11.7188 19.25H10.1562C9.94905 19.25 9.75034 19.1677 9.60382 19.0212C9.45731 18.8747 9.375 18.676 9.375 18.4688V16.9062Z" fill="white"/>
</g>
<defs>
<clipPath id="clip0_302_911">
<rect width="25" height="25" fill="white" transform="translate(0 0.5)"/>
</clipPath>
</defs>
</svg>
