<svg width="10" height="12" viewBox="0 0 10 12" fill="none" xmlns="http://www.w3.org/2000/svg">
<g clip-path="url(#clip0_22_991)">
<path d="M7.22038 7.75801C7.81581 6.76703 8.0825 5.53838 7.96709 4.31787C7.85168 3.09737 7.36268 1.97502 6.59792 1.17536C5.83317 0.375705 4.84906 -0.042283 3.84247 0.00502187C2.83589 0.0523267 1.88106 0.561436 1.16903 1.43049C0.456989 2.29955 0.0402511 3.46447 0.0021859 4.69219C-0.0358793 5.9199 0.307535 7.11988 0.963725 8.05204C1.61991 8.98421 2.54049 9.57981 3.54127 9.7197C4.54205 9.85958 5.54923 9.53344 6.36132 8.80651H6.3607C6.37915 8.83651 6.39883 8.86501 6.42097 8.89276L8.78844 11.7803C8.90375 11.921 9.06017 12.0001 9.22329 12.0002C9.38641 12.0002 9.54288 11.9213 9.65826 11.7806C9.77365 11.64 9.8385 11.4492 9.83856 11.2503C9.83862 11.0513 9.77387 10.8605 9.65857 10.7198L7.29109 7.83226C7.26911 7.80512 7.24547 7.78004 7.22038 7.75726V7.75801ZM7.37903 4.87501C7.37903 5.41671 7.29155 5.95311 7.12158 6.45358C6.95161 6.95405 6.70249 7.40878 6.38843 7.79182C6.07437 8.17487 5.70153 8.47871 5.2912 8.68601C4.88086 8.89331 4.44106 9.00001 3.99692 9.00001C3.55277 9.00001 3.11298 8.89331 2.70264 8.68601C2.29231 8.47871 1.91946 8.17487 1.60541 7.79182C1.29135 7.40878 1.04222 6.95405 0.872257 6.45358C0.70229 5.95311 0.61481 5.41671 0.61481 4.87501C0.61481 3.78099 0.971138 2.73178 1.60541 1.9582C2.23967 1.18461 3.09993 0.750014 3.99692 0.750014C4.89391 0.750014 5.75416 1.18461 6.38843 1.9582C7.0227 2.73178 7.37903 3.78099 7.37903 4.87501V4.87501Z" fill="#252836"/>
</g>
<defs>
<clipPath id="clip0_22_991">
<rect width="9.83886" height="12" fill="white"/>
</clipPath>
</defs>
</svg>
