<svg width="25" height="26" viewBox="0 0 25 26" fill="none" xmlns="http://www.w3.org/2000/svg">
<g clip-path="url(#clip0_302_913)">
<path d="M12.5001 7.92822C11.834 7.92822 11.1745 8.05941 10.5591 8.3143C9.9438 8.56918 9.38468 8.94277 8.91371 9.41374C8.44274 9.88471 8.06915 10.4438 7.81427 11.0592C7.55938 11.6745 7.42819 12.334 7.42819 13.0001C7.42819 13.6661 7.55938 14.3257 7.81427 14.941C8.06915 15.5564 8.44274 16.1155 8.91371 16.5865C9.38468 17.0574 9.9438 17.431 10.5591 17.6859C11.1745 17.9408 11.834 18.072 12.5001 18.072C13.8452 18.072 15.1353 17.5376 16.0864 16.5865C17.0376 15.6353 17.5719 14.3452 17.5719 13.0001C17.5719 11.655 17.0376 10.3649 16.0864 9.41374C15.1353 8.46258 13.8452 7.92822 12.5001 7.92822ZM8.99069 13.0001C8.99069 12.0694 9.36043 11.1767 10.0186 10.5186C10.6767 9.86046 11.5693 9.49072 12.5001 9.49072C13.4308 9.49072 14.3234 9.86046 14.9816 10.5186C15.6397 11.1767 16.0094 12.0694 16.0094 13.0001C16.0094 13.9308 15.6397 14.8235 14.9816 15.4816C14.3234 16.1397 13.4308 16.5095 12.5001 16.5095C11.5693 16.5095 10.6767 16.1397 10.0186 15.4816C9.36043 14.8235 8.99069 13.9308 8.99069 13.0001Z" fill="#00467A" fill-opacity="0.8"/>
<path d="M15.3062 2.59839C14.4828 -0.198486 10.5172 -0.198486 9.69372 2.59839L9.54684 3.09683C9.48934 3.29206 9.38887 3.47196 9.2528 3.62332C9.11674 3.77469 8.94853 3.89369 8.7605 3.97159C8.57247 4.0495 8.36939 4.08435 8.16615 4.07357C7.9629 4.0628 7.76464 4.00668 7.5859 3.90933L7.12965 3.65933C4.56715 2.26558 1.76559 5.0687 3.1609 7.62964L3.40934 8.08589C3.50669 8.26463 3.56281 8.46288 3.57359 8.66613C3.58436 8.86937 3.54952 9.07245 3.47161 9.26048C3.3937 9.44851 3.2747 9.61672 3.12334 9.75279C2.97197 9.88885 2.79208 9.98932 2.59684 10.0468L2.0984 10.1937C-0.698471 11.0171 -0.698471 14.9828 2.0984 15.8062L2.59684 15.9531C2.79208 16.0106 2.97197 16.111 3.12334 16.2471C3.2747 16.3832 3.3937 16.5514 3.47161 16.7394C3.54952 16.9274 3.58436 17.1305 3.57359 17.3338C3.56281 17.537 3.50669 17.7353 3.40934 17.914L3.15934 18.3703C1.76559 20.9328 4.56715 23.7359 7.12965 22.339L7.5859 22.0906C7.76464 21.9932 7.9629 21.9371 8.16615 21.9263C8.36939 21.9156 8.57247 21.9504 8.7605 22.0283C8.94853 22.1062 9.11674 22.2252 9.2528 22.3766C9.38887 22.5279 9.48934 22.7078 9.54684 22.9031L9.69372 23.4015C10.5172 26.1984 14.4828 26.1984 15.3062 23.4015L15.4531 22.9031C15.5106 22.7078 15.6111 22.5279 15.7471 22.3766C15.8832 22.2252 16.0514 22.1062 16.2394 22.0283C16.4275 21.9504 16.6305 21.9156 16.8338 21.9263C17.037 21.9371 17.2353 21.9932 17.414 22.0906L17.8703 22.3406C20.4328 23.7359 23.2359 20.9312 21.839 18.3703L21.5906 17.914C21.4932 17.7353 21.4371 17.537 21.4263 17.3338C21.4156 17.1305 21.4504 16.9274 21.5283 16.7394C21.6062 16.5514 21.7252 16.3832 21.8766 16.2471C22.028 16.111 22.2079 16.0106 22.4031 15.9531L22.9015 15.8062C25.6984 14.9828 25.6984 11.0171 22.9015 10.1937L22.4031 10.0468C22.2079 9.98932 22.028 9.88885 21.8766 9.75279C21.7252 9.61672 21.6062 9.44851 21.5283 9.26048C21.4504 9.07245 21.4156 8.86937 21.4263 8.66613C21.4371 8.46288 21.4932 8.26463 21.5906 8.08589L21.8406 7.62964C23.2359 5.06714 20.4312 2.26558 17.8703 3.66089L17.414 3.90933C17.2353 4.00668 17.037 4.0628 16.8338 4.07357C16.6305 4.08435 16.4275 4.0495 16.2394 3.97159C16.0514 3.89369 15.8832 3.77469 15.7471 3.62332C15.6111 3.47196 15.5106 3.29206 15.4531 3.09683L15.3062 2.59839ZM11.1922 3.04058C11.5765 1.73589 13.4234 1.73589 13.8078 3.04058L13.9547 3.53901C14.0781 3.9579 14.2938 4.34384 14.5858 4.66854C14.8778 4.99325 15.2388 5.24849 15.6423 5.41554C16.0458 5.5826 16.4815 5.65724 16.9176 5.634C17.3537 5.61075 17.779 5.49021 18.1625 5.2812L18.6172 5.0312C19.8109 4.38276 21.1172 5.68745 20.4672 6.88276L20.2187 7.33901C20.01 7.72249 19.8898 8.14781 19.8668 8.58379C19.8438 9.01977 19.9186 9.45537 20.0858 9.85868C20.253 10.262 20.5083 10.6228 20.833 10.9146C21.1578 11.2064 21.5437 11.4219 21.9625 11.5453L22.4593 11.6921C23.764 12.0765 23.764 13.9234 22.4593 14.3078L21.9609 14.4546C21.542 14.5781 21.1561 14.7938 20.8314 15.0858C20.5067 15.3778 20.2514 15.7388 20.0844 16.1423C19.9173 16.5457 19.8427 16.9815 19.8659 17.4176C19.8892 17.8537 20.0097 18.279 20.2187 18.6624L20.4687 19.1171C21.1172 20.3109 19.8125 21.6171 18.6172 20.9671L18.1625 20.7187C17.7789 20.5097 17.3535 20.3892 16.9173 20.3661C16.4811 20.3429 16.0453 20.4177 15.6418 20.5849C15.2383 20.7521 14.8773 21.0076 14.5854 21.3324C14.2935 21.6573 14.0779 22.0434 13.9547 22.4625L13.8078 22.9593C13.4234 24.264 11.5765 24.264 11.1922 22.9593L11.0453 22.4609C10.9218 22.0422 10.7061 21.6565 10.4142 21.3319C10.1223 21.0074 9.76151 20.7523 9.35823 20.5852C8.95495 20.4182 8.51941 20.3435 8.08351 20.3666C7.64761 20.3897 7.22241 20.51 6.83903 20.7187L6.38278 20.9687C5.18903 21.6171 3.88278 20.3125 4.53278 19.1171L4.78122 18.6624C4.99052 18.279 5.1113 17.8535 5.1347 17.4172C5.15809 16.9809 5.08352 16.545 4.91644 16.1413C4.74936 15.7376 4.49402 15.3764 4.16915 15.0843C3.84428 14.7922 3.45813 14.5765 3.03903 14.4531L2.54059 14.3062C1.2359 13.9218 1.2359 12.075 2.54059 11.6906L3.03903 11.5437C3.45748 11.4201 3.843 11.2045 4.16738 10.9127C4.49176 10.6209 4.74679 10.2603 4.9138 9.85722C5.08081 9.45414 5.15559 9.01882 5.13265 8.58311C5.10971 8.1474 4.98963 7.72233 4.78122 7.33901L4.53122 6.88276C3.88278 5.68901 5.18747 4.38276 6.38278 5.03276L6.83903 5.2812C7.22241 5.48991 7.64761 5.61022 8.08351 5.63331C8.51941 5.65641 8.95495 5.5817 9.35823 5.41466C9.76151 5.24763 10.1223 4.99249 10.4142 4.66795C10.7061 4.34341 10.9218 3.95768 11.0453 3.53901L11.1922 3.04058Z" fill="#00467A" fill-opacity="0.8"/>
</g>
<defs>
<clipPath id="clip0_302_913">
<rect width="25" height="25" fill="white" transform="translate(0 0.5)"/>
</clipPath>
</defs>
</svg>
