<svg width="23" height="26" viewBox="0 0 23 26" fill="none" xmlns="http://www.w3.org/2000/svg">
<path d="M11.7954 25.5C12.6242 25.5 13.4191 25.1707 14.0051 24.5847C14.5912 23.9986 14.9204 23.2038 14.9204 22.375H8.67041C8.67041 23.2038 8.99965 23.9986 9.5857 24.5847C10.1718 25.1707 10.9666 25.5 11.7954 25.5ZM11.7954 3.49687L10.5501 3.74843C9.13754 4.03624 7.8678 4.80328 6.9558 5.91972C6.04381 7.03615 5.54556 8.43341 5.54541 9.87499C5.54541 10.8562 5.33603 13.3078 4.82822 15.7219C4.57822 16.9203 4.24072 18.1687 3.79229 19.25H19.7985C19.3501 18.1687 19.0142 16.9219 18.7626 15.7219C18.2548 13.3078 18.0454 10.8562 18.0454 9.87499C18.0449 8.43368 17.5465 7.03679 16.6345 5.92067C15.7226 4.80456 14.453 4.03775 13.0407 3.74999L11.7954 3.49531V3.49687ZM21.5142 19.25C21.8626 19.9484 22.2657 20.5016 22.7329 20.8125H0.85791C1.3251 20.5016 1.72822 19.9484 2.07666 19.25C3.48291 16.4375 3.98291 11.25 3.98291 9.87499C3.98291 6.09374 6.67041 2.93749 10.2407 2.21718C10.2189 1.99992 10.2429 1.7805 10.3111 1.57308C10.3793 1.36565 10.4902 1.17482 10.6367 1.0129C10.7832 0.850973 10.962 0.721548 11.1616 0.63297C11.3611 0.544392 11.5771 0.498627 11.7954 0.498627C12.0138 0.498627 12.2297 0.544392 12.4293 0.63297C12.6288 0.721548 12.8076 0.850973 12.9541 1.0129C13.1006 1.17482 13.2115 1.36565 13.2797 1.57308C13.3479 1.7805 13.3719 1.99992 13.3501 2.21718C15.1162 2.5764 16.7038 3.53493 17.8442 4.93046C18.9846 6.326 19.6077 8.07277 19.6079 9.87499C19.6079 11.25 20.1079 16.4375 21.5142 19.25Z" fill="#BDBDBD"/>
</svg>
