<svg width="26" height="20" viewBox="0 0 26 20" fill="none" xmlns="http://www.w3.org/2000/svg">
<path d="M0.29541 3.75C0.29541 2.9212 0.62465 2.12634 1.2107 1.54029C1.79675 0.95424 2.59161 0.625 3.42041 0.625H22.1704C22.9992 0.625 23.7941 0.95424 24.3801 1.54029C24.9662 2.12634 25.2954 2.9212 25.2954 3.75V16.25C25.2954 17.0788 24.9662 17.8737 24.3801 18.4597C23.7941 19.0458 22.9992 19.375 22.1704 19.375H3.42041C2.59161 19.375 1.79675 19.0458 1.2107 18.4597C0.62465 17.8737 0.29541 17.0788 0.29541 16.25V3.75ZM3.42041 2.1875C3.00601 2.1875 2.60858 2.35212 2.31556 2.64515C2.02253 2.93817 1.85791 3.3356 1.85791 3.75V4.08906L12.7954 10.6516L23.7329 4.08906V3.75C23.7329 3.3356 23.5683 2.93817 23.2753 2.64515C22.9822 2.35212 22.5848 2.1875 22.1704 2.1875H3.42041ZM23.7329 5.91094L16.2985 10.3719L23.7329 14.8656V5.9125V5.91094ZM23.6798 16.6578L14.7813 11.2812L12.7954 12.4734L10.8079 11.2812L1.91104 16.6563C2.00041 16.9882 2.19674 17.2813 2.46961 17.4904C2.74248 17.6994 3.07667 17.8126 3.42041 17.8125H22.1704C22.5139 17.8127 22.848 17.6997 23.1208 17.491C23.3937 17.2823 23.5901 16.9894 23.6798 16.6578V16.6578ZM1.85791 14.8656L9.29228 10.3719L1.85791 5.91094V14.8641V14.8656Z" fill="#BDBDBD"/>
</svg>
