<svg width="22" height="28" viewBox="0 0 22 28" fill="none" xmlns="http://www.w3.org/2000/svg">
<path d="M13.2628 0H4C3.07174 0 2.1815 0.368749 1.52513 1.02513C0.868749 1.6815 0.5 2.57174 0.5 3.5V24.5C0.5 25.4283 0.868749 26.3185 1.52513 26.9749C2.1815 27.6313 3.07174 28 4 28H18C18.9283 28 19.8185 27.6313 20.4749 26.9749C21.1313 26.3185 21.5 25.4283 21.5 24.5V8.23725C21.4999 7.77316 21.3155 7.32811 20.9872 7L14.5 0.51275C14.1719 0.184539 13.7268 9.91155e-05 13.2628 0V0ZM13.625 6.125V2.625L18.875 7.875H15.375C14.9109 7.875 14.4658 7.69063 14.1376 7.36244C13.8094 7.03425 13.625 6.58913 13.625 6.125ZM15.9945 13.7445L10.7445 18.9945C10.6632 19.076 10.5667 19.1406 10.4604 19.1847C10.3541 19.2289 10.2401 19.2516 10.125 19.2516C10.0099 19.2516 9.89595 19.2289 9.78964 19.1847C9.68334 19.1406 9.58678 19.076 9.5055 18.9945L6.8805 16.3695C6.79915 16.2881 6.73461 16.1916 6.69058 16.0853C6.64656 15.979 6.62389 15.8651 6.62389 15.75C6.62389 15.6349 6.64656 15.521 6.69058 15.4147C6.73461 15.3084 6.79915 15.2119 6.8805 15.1305C7.0448 14.9662 7.26764 14.8739 7.5 14.8739C7.61505 14.8739 7.72898 14.8966 7.83527 14.9406C7.94157 14.9846 8.03815 15.0491 8.1195 15.1305L10.125 17.1378L14.7555 12.5055C14.9198 12.3412 15.1426 12.2489 15.375 12.2489C15.6074 12.2489 15.8302 12.3412 15.9945 12.5055C16.1588 12.6698 16.2511 12.8926 16.2511 13.125C16.2511 13.3574 16.1588 13.5802 15.9945 13.7445V13.7445Z" fill="white"/>
</svg>
