<svg width="25" height="24" viewBox="0 0 25 24" fill="none" xmlns="http://www.w3.org/2000/svg">
<path d="M12.2954 22.5C9.51064 22.5 6.83992 21.3938 4.87079 19.4246C2.90166 17.4555 1.79541 14.7848 1.79541 12C1.79541 9.21523 2.90166 6.54451 4.87079 4.57538C6.83992 2.60625 9.51064 1.5 12.2954 1.5C15.0802 1.5 17.7509 2.60625 19.72 4.57538C21.6892 6.54451 22.7954 9.21523 22.7954 12C22.7954 14.7848 21.6892 17.4555 19.72 19.4246C17.7509 21.3938 15.0802 22.5 12.2954 22.5ZM12.2954 24C15.478 24 18.5303 22.7357 20.7807 20.4853C23.0311 18.2348 24.2954 15.1826 24.2954 12C24.2954 8.8174 23.0311 5.76516 20.7807 3.51472C18.5303 1.26428 15.478 0 12.2954 0C9.11281 0 6.06057 1.26428 3.81013 3.51472C1.55969 5.76516 0.29541 8.8174 0.29541 12C0.29541 15.1826 1.55969 18.2348 3.81013 20.4853C6.06057 22.7357 9.11281 24 12.2954 24V24Z" fill="#BDBDBD"/>
</svg>
