<svg width="9" height="14" viewBox="0 0 9 14" fill="none" xmlns="http://www.w3.org/2000/svg">
<path d="M0.177565 3.679C0.175512 3.72744 0.183389 3.77579 0.200712 3.82107C0.218035 3.86636 0.244438 3.90762 0.278298 3.94232C0.312158 3.97703 0.352758 4.00444 0.397603 4.02287C0.442447 4.0413 0.490588 4.05036 0.539065 4.0495H1.77656C1.98356 4.0495 2.14856 3.88 2.17556 3.6745C2.31056 2.6905 2.98556 1.9735 4.18856 1.9735C5.21756 1.9735 6.15956 2.488 6.15956 3.7255C6.15956 4.678 5.59856 5.116 4.71206 5.782C3.70256 6.5155 2.90306 7.372 2.96006 8.7625L2.96456 9.088C2.96614 9.18641 3.00634 9.28026 3.0765 9.3493C3.14665 9.41833 3.24114 9.45701 3.33956 9.457H4.55606C4.65552 9.457 4.7509 9.41749 4.82123 9.34717C4.89156 9.27684 4.93106 9.18146 4.93106 9.082V8.9245C4.93106 7.8475 5.34056 7.534 6.44606 6.6955C7.35956 6.001 8.31206 5.23 8.31206 3.6115C8.31206 1.345 6.39806 0.25 4.30256 0.25C2.40206 0.25 0.320065 1.135 0.177565 3.679V3.679ZM2.51306 12.3235C2.51306 13.123 3.15056 13.714 4.02806 13.714C4.94156 13.714 5.57007 13.123 5.57007 12.3235C5.57007 11.4955 4.94006 10.9135 4.02656 10.9135C3.15056 10.9135 2.51306 11.4955 2.51306 12.3235Z" fill="#BDBDBD"/>
</svg>
